<mxfile host="app.diagrams.net" modified="2023-10-01T09:28:37.353Z" agent="Mozilla/5.0 (Macintosh; Intel Mac OS X 10_15_7) AppleWebKit/537.36 (KHTML, like Gecko) Chrome/115.0.0.0 Safari/537.36" etag="5WFZa3Q2iM9l9TwXJHbJ" version="21.5.2" type="github">
  <diagram name="Page-1" id="-skaUJ58USWhzuwFqOJh">
    <mxGraphModel dx="707" dy="370" grid="1" gridSize="10" guides="1" tooltips="1" connect="1" arrows="1" fold="1" page="1" pageScale="1" pageWidth="827" pageHeight="1169" math="0" shadow="0">
      <root>
        <mxCell id="0" />
        <mxCell id="1" parent="0" />
        <mxCell id="qsSFl6psFR9ltQQO1IaP-1" value="" style="shape=image;verticalLabelPosition=bottom;labelBackgroundColor=default;verticalAlign=top;aspect=fixed;imageAspect=0;image=data:image/jpeg,/9j/4AAQSkZJRgABAQAAAQABAAD/2wCEAAkGBxQUExYUExMXFxYYGRkZGRcYFh4bGxkeGx4cHxwgGx4eISkhHx4nHhkgJDIjJiosMC8vGCE3OjUtOSkuLywBCgoKDg0OHBAQHDAmISYuMDQuLC4wLi4uLi4uLC4uMC4uLi4uLi4uLi4uLi4uLiwuLi4uMDAwLi4uLi4uLi4uLv/AABEIAPgAzAMBIgACEQEDEQH/xAAcAAACAgMBAQAAAAAAAAAAAAAABgQFAgMHAQj/xABLEAACAQIDBQQGBwUFBQgDAAABAgMAEQQSIQUxQVFhBhMicQcyUoGRoRQjQmJygpIzQ6KxwWNzwtHwFSSDk7IINFOjs8Ph8RZEVP/EABoBAQADAQEBAAAAAAAAAAAAAAACAwQBBQb/xAAuEQACAgEDAgQFAwUAAAAAAAAAAQIRAxIhMQRBEyJRcTJhgbHBBUKRFCOh8PH/2gAMAwEAAhEDEQA/AO40UUUAUUUUAUUUUAUUUUAUUUUAUUUUB5RRSf28x7NkwMTFXxObvHB1jgW3eMOTNcRr1cnhXG6OpNukN4N9RXppP9HmJKpLg3N2wrhEJ3mFxmhJ8heP/hedOFE7DVOme0UUV04FFFFAFFFFAFFFFAFFFFAFFFFAFFFFAFFFFAFFFFAFFFFAeUUr7T7b4eNzFEHxMo0KYcB8h/tHJEabvtNfpVa23tpyapBhcOOUrvO/vEeRQfzH31FyS5Jxxylwh6rnOxZvpE2Ixp1ErmKHpDCSq26O+d/zCvNrbV2qkMpz4Nvq5NRHLGy+E6qc7gkb7Ea86mbPgTD4eNCQEijVcx5KALn/AFxqrJNNUjTgxOMrkbOzWm08QBuOFgLeYlnA+VO9cr2BtDGrPiZ48Gv1xjWNsRN3Vo4lIX6tUZwSzuxzW9YDhV4naTaKayYTDyryhnZX9wkQKT+YVOMkklZVkxylJtIeaKXtgdrYMS5iBeKcC5gmXJIBzAOjrp6ykimGrCgKKKKAKKKKAKKKKAKKKKAKKKKAKKKKAKKKKAKKKQu0PpPw8E/0aKOTEz5ghWOwUObWUuTa+utgba3ta1AM+39vQYSPvJmsCQqqoLPIx3LGo1ZjyHmbDWk/FfSsdc4hmw+HO7DRvZ3H9vIuov8A+GhA11JrLAbOdpfpOLYSYgggW/ZwKfsQg7ur728tKtqzzy9kbcXTpbyNODwqRII4kVEG5VAUD3CtE7TMbR5UXjI4zE/gS4/Ux4eqw1qZm1tWE8oVSxuQATYbzbgOtVGoh2CkRlnlkZdQzD1dxZgoCKOGi68ONpksQYC/A3BsDYjcRcEXqPszCFFLObyuc0h68FX7ijwjyudSSZlcCK+T6QhuO7lX2bd3J1s1yjHpZB1qXh5w4uAQeKsLEHqP6jQ8Ca20UFEHauyop1CyrfKcyOpKvGw3MjjVWHMVlsXtHLh5Fw2ObMjnLBi7WDnhHMNyy8mGj9DoZlaMbhI5Y2jkQOjizKdxH+uPCpwm4leXEpr5jpRSR2R2rJBKMBipC9wThZm3youpjc8ZUHH7S67wad61J2rR5souLpntFFFdOBRRRQBRRRQBRRRQBUHae04YEMk8qRoPtOwUeWu89KnV84emnDsu1HzsWV4o5IwxJCCxRgoO4FoydOdAh7256acMl1wkTzn22+qj91wXP6R50h7V9Km05vVlSBfZhjF/1PmPwtSXV52IwMM+Mijnt3ZzHKTYOVUkKenEjja3Gq5T0psmojXgpsKdnjF4yWTGSlmXJLO7DvLm0eQtlFgAxJG7UaECpvot7MEhsfIiLmLdyirlCg3Duq7gDqq9Ad+aqLuv9rbRSGFQmFjuBkAULEts7i1rFzYDkCumhrtrRrHGERQqhQiqBYAAWAA5AVSrSbfL/wAF2JeayDWmeW1gNWb1R5byeg/qBvIrbMwQEv4QoJJOlgNST0tUbBITeRgQz7gfsL9lfPiepI3AVWbjfGlhbfzJ3k8zWRFe0UOhRRRQBRRRQHjdN9eRvcX/ANAjQj3GsqjE5ZByk+Tgf1UfwdaA0bc2P9KhaIEq+jxSAkNFIuqOpGoIPEcCedKnY7tvtJe+w8qR4iXD5iUkkMc7BdCFYIVex4mx8Q1N66HgT4vdXPfSpsx8PPFtPD6MCEltpc2spPRl+rJ/BVsG9O3Jk6iKbsvdjembAyWE6y4ckDVlzpryZLn3lRT9s3acM6d5BKkqe1GwYfLj0r5v7S9mY4YIcVhpGfDy2FntnjaxIBIABHhKnS4K21vou4HEyQuJIJHikH242KnyNt46GrYzUlaMjifX9FcO7G+l3ECSKDGIJg7rGJUASQFjYFl9Vhcjdl99dxqwiFFFFAFFFFAFcb/7Q2yrphsSB6rNC+nBxmT3Ao36q7JS52/2J9MwE8AF2ZMyfjTxJ8WUDyJoD5cje9P2Kkgw2yIu7VDPiwQ8hALAC/e67wF/Zi24tffekTYcCyzwoxsrsAbct5Hvtb3054nCRYvaUWGhiEcEVlZFAtZfHKTzLGyEnXQVnyU5KP1/36l0U2Pfop2SMNhe8dbS4iznTUJ+7X4HN5ueVOkEmdieA3Dzqsw73H5mHwYj+lb45CNx31Xrd7m1Y0lSI22G7yVYhuADyeSnwKfxP8RGw41MaEhQx48KrNlnMHlP7xiR+BfCluhAz+chqzmnzADcBXGTSe1GqiioeBx4leUJqsbd2W5uBdwOgzAeYYcK4SJtFap5QouegA5k7hWYoDKivKzgK635G3nQM0QNoRyJH+XyIrPE4MyRtlNmGq9GWzKfcQNOlR8I12m6SD/04/8AOpOGnNjbqD7iR/Suo47o3bGxQdAwFswBsd4PEHqDp7jW7amBTEQyQSapIpRuYvxHUbx5CqfAMUllQaaiVfKS+YdTnVmP4xU9pSSTexPKpKVFTx6jkHZ7ZrymfZE8xjKSGRCFBuyXDAAn1WBWQAanxGlLbez2w08kEhBaNrEjcbgMpHmrA24XroHpLw7YbEYfaEQ1VlV7cStyv6kzIT0WkjtokhnOIdlYYj61Cu4LYADXkuUX41KDal8n9zJOOm0b/Rxs84jamFTWyyCU24CIF9ehZQPfX1RXEv8As97Gu2IxjDdaCM/B5P8AAL+ddtrQilhRRRXTgUUUUAUUUUB8+dpOx0cW1MRnJWIj6TEFOUkMSXsRqAjg6DXVNRUj0O4Mt9IxTjV2yL0v45NepZf002endFXCRTA2lEjRL95JUbvFPSyBr8CgrT6O8H3Wz8OOLqZD/wAQlh8iB7qz5LTb9aNXTK5exd7PbwH+8l+Uj0bTkKxOVNmIyr+JvCn8RFYbNOjr7Msn8TZx8nFZ4xcxjXgZAT+RWkH8SCqe5u7G+GMKoVRYKAoHQaCteHlz3b7O5eoH2ved3QA8a07UkITKps0jCNSDYjN6xHVUDN+WpcOGdgFiUKoAGcjwqB7I+0eVtOulj0OSXJW7cxzIjCP1guZ2uRkQbyCA3jIByix114a7dk4YQwKrALYFn10Um7MLngt7XPBRXm1liiZYbkhSskzEEs7X+qQAaszMubKtzaNRazCtrwHKZ8UCkKWKw73drgLntvYsQFjHEjebZVdirxFyQ4sSJpQBeyeIqQQQB6pYHUFm1H3YzzIq3qJgYmGZ3AEkjZmANwvBUXoqgDhc3NhmqRI4Auf/AL5Ada4y2K23Mia14Q3RTzGbyza/1qv2jIZV7tfUZhG7cCd7op4kIGLHha286btoXkYYeP15R4iPsR7nYkbifVXjc3F8ppRxyW5H2JjQ5O/6wvIDlYC1/DYkWJMeU2B4GpuDk8Uo9mQfNEb+bGrHbWGVIQygDuSr35KNJP8Ayy3yqiytG0s37szZH+6O7iUMegcb9wDMeFdorjkVbknF+GWF+ZeM+TDMD+qMD81Tb1C2vpEzewVk90bBz8lI99TDXC3uVfanZgxGFmhO9kJU8nXxIf1AVxKWIS4ISFn72BxCselrMbgAWvm1t/w7WrvWOa0ch5Ix+ANc92f2bt2gjjYfUvIcSATYM6o7gDmwkzG3sg8qtx77GbqV+46z2E2F9DwMEB9dUvJ1kfxPrxGYkDoBTDRRWkwBRRRQBRRRQC7t/tRHhnWLupppCpkMcEedkQaZ3FxZbiw3kkGwNqttnY6OaNJYmzI6hlYcQRcb93kaXOzwz43aMpJJEsMA6LFCjWH55mPvpIxm3JIop9lRFkdcRMGkUeph5GEq5TwZxLkHIKx0sKi5pXZZDG5tKPLNvbLbAxuJCx+LD4cugP2ZZWGVmHAoi3UHiWbhambCqiJGiWyBQi2NwAo0HwU/Cl3sbshJZQmUd1CoZl4cRGpHIkE9cljvpk222VpX3ZHRiegRA5/SW+FZW3LzM9NqOKsS7cv5mjCG0068+7l/UuT/ANn51NSIvJlX1u7lZfMAAfNqgYk5cRE3B1eI9WsHX4BJP1Vb7K/bqeJSRR5nKf8ADSPxIjl2gysXFJ30TlQyrFLKAbDX6tQxLaKAjvdjoBSljO3OLxczQ7NjM7KfFKC0cEfkbq729p2AbLpHVP2m+lY3aP8AsxEaC7t3yrIHXuyVkvmABK3JZVIX1owQCKk+kDELAU2Tglywxqvehd8sji4VzxAUqxvvLC/q1dShG2YMuTVK0StldnNql5J0xGAxMhYsyHx5bgCyuih49FAsCo8I5Vd7Ax808jxzYeRJcOQRh2mDsmYWMgaQjOCcyq2ZsouONV3opEGDlnaeWEFkRQ+YWisWLqzH1Q11Oth4PKn/ABkcWI7jHYZlcxsRnU6SRM2SVSeKi2cfeiHM0VTjZGGSnZDeOYLcYdyeC5ov557AVqwXZ+eQ58VIqb7RwsxsDpYykK1yN5VVPJgCQWq1e2qtKi+WWTEtsV3kxiwsassN4UC+GKMi3eM5GgAICBAM3gawysSI23dox7PUIZpHxE+uWCFXxEp3XUNmRIxuClToD6xvd4w+GSNQiKqKNyqAAPICuaYvE/7Pwz7TlUNtDGt9VnF+5RgSiAcAkYF+bWBPGpRiuWVzyOqM5Z9sSRPbBWVlZcuIxKFmDC25FRFJvuNqy7Ldsowq4TFQvFLJmYxTKAJhMzN9U3qvo2XIbE7gSfCaPsAkrY+KXGYlyzBmCtOwckjw5gCAFv8AZ3bhbhXQu3fZjD7Rhlw+ZBPGodCCM0ZbNkLclbIQeYB4gETjpktipTZAWLwtAWzqUPdSanvIjoCSd7rfK3G9ibZwKlYWXMiN7SqfiAaUfRpt8zg4PErL9KjkZSQjMUdNC7tbKuYZlcFhmMZbVpCabMImWNF5KB8Bb+lU5IaT0Ony61T5Rr2qfqmHtWT9ZC/4qqu1ODdmikiNplN4j/ax3kizH2SFkjI4iarPaJuYk9qQE9AgL3/Uqj30bXjJhYqLstpFHNoyHUe8rb31FOi6UdSaGzYG1kxWHinj0WRQbHep3Mp+8rAqeqmrKkLsbjhDipMPf6rEg4mDlm075B53WQAe29PtbIu1Z5M46ZNHtFFFdIhRRVftTa8GHUNiJ4ogdxkkVL+VzqfKgKDYxybQx8R+2YMSvUPGIm+DQH9Qpd7dbPVMSZQADMi5jzMd1+QI+NTV2jPLiY9pLhxHhFjkjZmc99LCxVll7sL4VVlzAFs2VmNtbVM7fwhoY5VsQrgX4ZZBbTzYJ8az5laZt6KWnLG/b+TP0d4cDDtJxklf4J9XbyujH8xrFyHzEi4csfNWJtf8pAqR2TnCbPVx9kTn9MkhP8qiwplVV5AD4Cq5cIvx+bLNv1/JWXYwFdWlgYebGKzL75Et/wAw1YtNF4GkXPCfWAjaS4ZWykKgLHUjcKiYw91Ks32GtHJ01+rfyDEqejgnRa2YFjHmQb4iGQfdvmQacAQUtyTrXE6aZOcbi18hd9DeGjfaO050BsriOPPmzhGeTQ5/GDaNdG106Uv7UBO1se59ZO/cfkUBf4bU49inOG21jYJZI2bFomIQx6KSpbMuUsSG8THebhL6XtUPtlsOWHbEWIijzx4khWF7AtkySITwvGAw5kNyq/L8FnkV2EDsqmefuzqJEkVvLKTr8K636FXLbNIbcJZAPIhSfmxpSk7IHBx4mWNnkdkaKENEyFA++5+1JlGVQuhJ6i3Sewuxjg8BDC/r2LSa3szkswvxy3y3+7VWDlsJF4BXtq9UVnlq7SWtmq1cs9MiZ8bs+I+qc+nPM8QPyA+NdWYUielzYMk0UGIhH1uGkv5I5W7flZEY8lDVxrysjI5BPM30st9oTkfBstvhpT56Kh3W1sVCvqmKRiOqyRW+HeNWTdk4mxX0sFiP2xwwja5kAzaPu7ssM16svQ1siXNicdMuVpmKqCLX8RaRh90vZR/dnpVOHeWxCqK5MGYu0mIC4gwJNCJWK92L/s7gmRWGrAm4AOuh3014ZgVUqbi2hve48+PnVLBhxNtnGYh8Ok0MKxYcOxQ5XVVdyquLXUmxIIIvoDc2tI5QkIZ9FWMFugC3NWZn2N3SLlmqM58Qx4RIE3/akIZgRzCpGf8AiGpLy+NF5hm9y2H83HwrTsyFlju4s7ku45M2tr8coso6KKwwT55JZPsg90v5Cc5H5yVP91VJsKnEwOIA0I+vwUpaJRxEdysZ6Ph3C/mFdM2Xj0nijmjN0kRXU9GFxfkdd1JUHhxEg4OsbjqwzI3yWOpPYGfuZZ8CdFBOIg/u5G+sUfglJ90i1fil2MXVY9lJew80UUVeYjBmsLnhSD2fwkcsEu08RGsksyvKneAN3UAzGKNAdFGSzNbezte9PeIizIy+0CPiLUn9mB3uyUhOjpA2FkXirxKYnB/MvzFQnwSiX+0p+7hd7eqhsPdp86pMPhFaNhIwWFB4g1slh0PhAHWpG1NoJJhCVYEvGrADXfY/yqs2bs4yz+PO6Rm5LtZAxsQqILKWA1LnVQQATc2oe7NMdosvpI0OFdIhZe7dVGUjep4EDnS3sfE95CjDiov7v9fOnSMg6LuBtpu04e6uZdniYMkL6K0cbIejKMp94081qM+EaOkpuS78jHKgYFWAKkEEEXBB0IPS1VuHzIwja5ZAe7Ym5lj0upJ/eLpfnZTfxMBZ1qxWHDrY3FjdWG9SNxB5/IgkG4JFQNLRuXZseJSFizK+HkzI8ZAIYDwkkgkjIRddxuQQavsVjInVo5kNrEm6EqQuXVSt7G7aDRrqbbr0s7PxhjkAksC1lJHqsb+Fhy1JBG8FhvGpvy1WrI0YZ4E2bYNmYeNg6qWZfVLOz5fLMSAeu+pfe5jeoKGoLdoYg+QMSRvYIzgdAEBLHy060U+3BX4WnjcZI68bDgur63UMBrp4st7/AKRVEdpRHVsXKnTuu7Huzx5v4q9XaGH4YyQ+TX+WU1oTRRJP0L96xWQbjVOm1U4Tyt+OBiP4Y1/nRDthGk7o3VrXW4sHH3evQ/51BySfJKMG1wSZNkwKCTdU3le9ZYwPw5soXpurdLikVSkbJmC+FRqF3qNBwBUi2m61RcXCrqUdQysLMrAFSORB0NabW3f6vvqDyJcIsjgvllLFspMNh5QhvI6uGk9UyySEgO4BylyzC7WvysLCtGKGd1j+ypDv7jdF/UMx6IL+tUzb81hGlr5pAbcSEBYfxhB760QpkUljr6zHmePu4DoAKqbs24opI17RnZVCx/tHOVNLgHixHJRdutgN5FbsJAsaLGt8qgKLm504k8TzPE1rghuxkYeIiyj2V328yQCfIDXKKkVEuS7kLFECeFr+sJY/MkK/8ojUXb8xi7rGR6thXzuBvaFhaZf0HOOqKaj9rJSv0Yjes2Ye5HX/AB1jFtNfpEinWN8isDu8UaEfJrGuqVNMPDri16nU4ZAyhlIKkAgjcQdQRW2lH0bYg/Rmw7G7YWV4Nd5RbNEf+UyD8pptrctzxJKnQGuddt4foUoxUViuIkVJYL2LyZdJYzqAwRPEDYELe4O/oormPpRcnGYRTuWKdx+ItEvxCk/qPOoT+FlmCOrIl8zHZuLRimYxlHZj3aubBrAhXuFbXxMVIXWwtvuy4SWJT+zEX3ohk+IG8ed6rYYhPgopQqsyr3bhwLP3ZKeLTcSt762zDQjQ12HwsLG0V4JF1KJZSB95NUdTuzWI32N6plFxVrg0bSbi+UMW3duph8O7RC5VSEHNjoo13ksRv53NYbT7PRvDhk9XLGsSv7Pg8BPtDMuW39qdxsaXptn95MkbSNLJvs1gsSHQkKoAzPqgLXNmexADCn7bS2iXpJh/lLHVmNXHcpnLRJaeUJGAxjB2hmGWWM5Tro3EEHjcWI5g8DcCxrL0jbLvGuKQWaKwkI4xk7/yMc1+CmTnVHsrbQayyGx3ZuB6HketZ5x0Oj1MM/GhqXPdFvNErAqwBB3g1sweNMdklJKbllPDksh/k/HcbHVsaDUTsoaiy2tG5gkyXzZTa2/rbra9QNn4RI0ASxuBdhx/+OVZ7HxfdOsTH6tzaMn923BCfZP2b7j4eKgb8bgnhJZFLwm5KqLvEd5so1ZDyFyp0AK+qlBtWjLGeiWmR7RWuCdXUMjBlPFTcfEVnVRpA1oxGGztFb1hIhB8iC38IJ91e4jEqlsx1Y2VQLs55Ko1Y210q32RgGX6yUWciwS4PdryJGhY8SNNABe12sxwcnZTmyqCruSZEqMyVYOlVG2drQ4dc0rhdCcu9iBvIG+3XdVskZoSvZFLi3D4hzpaFAnkz2d7/k7r4mtcEneeP7G9Pvfe8uXx5Wr8CjTLdwQjs0kgO92clsh/s0uF+9kA9UHNcVBm7Gtj29F68rGWQKCx3AXNRLKFftbNeRF9kr8TqflaqmG+eS/Nf+hR/hrbjpC8isd5csf0t/mKr8FjQ+Inj9gJrzJBv8NKjya1UaT9fxY++jnFXxmKHtw4aRvxKZYyfMqq/AV0auY+ixL4zFt7EOHT9TSt/T5106t+P4EfO9Ukssq9TykP0rbLYxRYtFLHDM5cDf3TgCQgcSpVX8lNPtFSatUVQk4SUlyjnvYvaWTBK7L3mFd5QXTxNFeRhdgNXjJ1zLqtwLFQWWVjtnI4UkLLGfFHIviBBGjKw3Eg7wal9ioFikx+GAAWPEllQCyqk0cbgKNwXMX0Gm+iXAS4Ry2HI7tiWaNv2bEm5Omsbk/aGhuSVY7uxVKhOWqTl6sk9nNjCM58mUbwLasTpma+pNuJ/pU3akueSKEa+NXfyXUDzuL/AJeoqtk2/MwsI0jPFs5e3kMqg9CT7juqfsLAlbyPfM3Peb7yep+QHKukSzxWGWRHjYXV1ZWHMMLEfA1w5oHQlbgujNG99A7RkoT0N10PL3Ed3vXItsYNzLiJBqveyMbfZGdkv5ZozrwvWfPFuNrseh+nZVHI4t8/c0bJ7QZCI3v0VtGH4eDDyJppilDAMpuDxpIkjDAqwBB3gi4PuNZYImI3jd0HFVbT3KwKj3CsiZ7E8Te6HTEQh1KkkX4jeDvBHIg2IPMCp+C7a4YIoxEqxyi6SAqwXOujZTa1jbMNdxFUuDxLsuYFZF8sjjodSpP6RUvY2yoppcTHJH66RPcjW5zIfh3SH82nOr8XNHmdXFaba4JmI2hsmZixxOGEhtd0xAikNt2ZkZWPka3x4DBsP+9synliv6qQfnSLtnsfHG+STNHc+GVfUN9wdTop6iyk+ySFqqxHYWUepJG34gVPyDVOUqfmiUY8KkrjJnU48fs3CkkTYdXIsWMoaRhwBYkuw6EmoOI9ImE1EAknIsDkTKBf70mW4/DeudYfsPMT45I1H3bsfhYD51Mh7NOgk7lrjPa+mfwqoNr+H1s1c8SUtoomumxxa8SRZ7R7bYqZskeSFRq3d/WOOQ7xgACeQS4F/FuvRiISyrEbsZHXvC12LKAWYOxuTdIytyftDpWFhGtlUk3PhN7luOYnW/MmrDsjg7TMzG7JHdjawLStw8hDlHIEVTqbe56HhQxQ8i57+44AcqKKK4RCqPtBjf3S+bf0H9fhU3au0RELDVzuHLqaVpH3sx6kmotl+GH7mQ8dihHeQ3IRDoN7FiAoHUlbe8VvxexThZsPG9u+fCvJMR/4kk2a35blR0Srr0fdnjipVxco/wB3ibNCpH7aUaCT8CWsvNteGsHtMX2htafD4c+ILHh2caiONLvM7ciGkKKOLCtEcTUPmzBl6uMs6f7Y39dhu9EmF/3eXEH/APYmZlPOOMCNPjkZvJhT2RUfZ+DSGKOKMWSNVRRyCiw+QqTWlKlR5U5OUnJ9z2iiiukRUxf+77Ujk/d4uIwseHew5pIrnm0bSj8g97XVL2r2OcTh2jVskoKyQv7EsZDRt+oC/QmsuzG2BioFly5HF0ljvrHKhyyIfJgfMWPGgLFcKgNwig88ovW+iigNM8wRWdjZVBYnkALn5Uo7HiKxYZ3HicESA7iWa7A+92+NWfbCf6kQDfO3dkfc3y36FAVvzkWpc+E8MC8mF/cCT/KuoCT2u7N9y2eFSUa5yDUrbfl5r038r6ALCsDurqvahCyxIvrNILdbeJv4VNUG2NjRz4eCYeCQooMgG/wgjOPtAW46i5sRWfJ06e6PT6b9RlDyz3Xr3FTZ2MMT34H1hzH+dOOwJr46MKbq+Gna/PLJhsv/AFmueLih3rwsQJEJBHBrcV5jpvHwJb/R++bEkm57mBxYb7TPGRp5wH41TiTjkpmvrHDJgc4u/wDo+7RwsbplcXB03XOvAc/KuXz9pcLBNJAkrSogveNWcIbjwKwvffoASFykXsLKxdpdqK8DzO9oblI0B/7w2vh59zoSbeuFJ1SwblGJmCyBt7HOXyjcGOYseAGYWHnV+ZqtJk/T+mc7ySdRW3uPeyceuM9SQqBq0KgrL+cmxC6/Y5esRpTlszYh0zLkQWAQaaDcLDcK4ph8R48yM0cgIZHU2YaDUHqBu3EV1XsL2reaPLiMveK2QlON/UbL9ktrYC4JVgLHwV3FNfDVHOu6SUP7ieqP2Ev0ubM7nFLNHdBILEqcviUAjdzFx5R1L9Hbs8Mrubky5b2tcKib7abyauvTPCr4VJV8XdyISRwuSuv5XY+6qXsDOq4RixsFke/wU/1FTzV4d97KOilLXpvb0GuqfaG2gLrHqfa4Dy5/y86rto7TaTT1U5c/Oq/GBo4XnMbmJLXYLpqbDU2G8666bzWDd7I9pRjBasjDE4gAF5GAG8sxt8SasuyXZdsee9mDLghYqvqnEnmeIi+Gbypb2zhJIgwx8LwF1KqzDPCocEeF0ugfnc35aEV170d7cGLwMMlwXVe7ksQfGnhbdzsGHRxV+HHT8xh63q9UEsb2f8jDHGFAVQFUAAACwAGgAG4AcqgbE2FDhVZYUsXYvI51eRySSztvJJJ6C9gANKtaK1HkBRRRQBRRRQBSdttTgcQ2OQEwS5VxaLrktouIUfdHhkt9kA/ZpxrB1BBBFwdCDxoCFPtAKUa143Fw6m413buBGt6lmdQubMMvO+lJ4B2YxVgW2cx0O84Qk7m5wE7j9jj4dzKNnwuAwRSCLgqdCDuItpagKvBxmfEmVvUjGVBy1v8AEkAn8ApjIrXFEqjKoAHIVk7gAk7gLmugo8ZKGxsSfZhikmY8mayLfzUv8KrtnsTs3CFt5SO9/wABqJDKzwY/Ej1plMcR6WKRi/EF2LD+8qD252oMPs5EU2Zw0acxckXHkuY/lFdS3Bx/beOzyPOrEXkaRWG8Aklbe6u1ejvZBCzmdVYuUA0uCihgptwzZnNuT2N9a4RjdfD0rp3Z/wBJyRxZJMK5uoVisg1AFtLgdasyQtppCOSSi43syu7W7YWSaWRCTDGSsKg6EaAsOHjYCx9kJ1qT6JtmGXFNI5uO7Yt1uyD52IH3VpTlZZPqYs/dgizPlDZBwYKSMw01GhIvZd1NfZLtZDs+SbvI5HzRxBFjC+EAyXvmZem6+6sUYy8Snye9mcP6S4PZJJe75N/pV2J3WIWaMkB47gcbxmza/hZLUv4DGNpJGQHAI11Vgd6sOKHTToCLEAhi7XdusPjUjVI5o5FkFjIqWIYEEXV2+1lO7hS1sjBxrLlmnWGFj6+VmYDflVVUgNa4BbQb7G1jzJCWuu53o8sf6W57pWn+DrybPTF4EOXldZYGMaSsDkMkRXUgAswDEXYtxPWuG7O2xKkWVCuRj3moJNyoGmttwG8c6+gNjbewGRIoMTDlRQqx94oIVRYDKxzbhXzxPCEd0G5GZB+Viv8AStsIKVxkjwVkcJaoOh89E5M+NfvrSKsLMAwBAbPGAQLWvYnXrXVdoxJK4w7qGQxyNIOFmHdhT0YO/wCg1zH0IMv0jEA+sYlK+QY5/mUrp2xlzl8Qf3pGT+6S4j15G7SDl3xFQmknSQc5S3k7K/sPiG7p8NK2aXCuYGJ3ugAaJz1aJkJPE5qYYoVW+VQt9TYAXPupbx3+77TilGiYuM4d+XexZpISepQyr7lpqqJwKKKKAKKKKAKKKKAKKKKAwdQQQRcHQg8aUW2VNgCXwKGbDE5nweazR39ZsMW0A49ySFOuUrexcaKAqNjdocPiVLRSqbEh0bwvGw0KujWZWB4EVC7SbQDIYo21fRmB9UcbHnb5251yf0z4VoNprPGWQzQKc6MVOaMlW1Gvq5KcexbPiI4yJM4eMNma11YWEiHKADZt3HffdepqO1nLL4xBcIqgWBkGg5JYi3QFBXHe2O3fpM91N4ogY4rbm1uz/mO7ooPE06elbtAsSpgYW8eUmVgdUVuHRm5bwpvpdTXL6txx7nGyIkZY3O6pYFFFWkSbsgjO3PKLDnc6/wAvnWraJ+tboFH8z/iqMyg76ADckkkniTc6ADf7uNUeE/F12bn1afSrDW6d2eSA2037x5jUfOrfHyBoQ43HKwv1/rYmqqsQg6m265vboL7h0Fdy4tcoyT4OdL1fg45watSVGRFAFFFXmIavRhIBtCNCdJo5YT1BXvCOlxDa/XnX0BXzV2UxXdY3CvyniXy7xhGT8HNfROFxysxQ+GRfWQ77cGX2kPBh1BsQQM2VeYnEp/SBAxwcksYvJhymJj/FAwcj8yqy/mq+wuIWREkQ3V1VlPMMLg/A1nIgIIIuCLEcwaW/R4xXCCBjdsLJLhiTvtE5EZ98WQ++qjo0UUUUAUUUUAUUUUAUUUUAUUUUBy709bMz4WHEAawy5WPJJRlP8YSuVbC2/icIxOHkKE71IDC9rXysCL24+V719I9p9kDFYWbDt+9jZQeTW8J9zWPur5gXFKvhkYLIt1dSbFWXRgR5g1diaqmRZIuxLO7FnclmZjcsTqSTxNe1H+mxe2v6hR9Ni9tf1CrrREkUVH+mxe2v6hR9Ni9tf1Cu2gSKKj/TYvbX9Qo+mxe2v6hS0CRRUf6bF7a/qFH02L21/UKWgSKKj/TYvbX9Qo+mxe2v6hS0CSkxQhxvQhh5qbj5ivpbHYKLExqbkcY5ENnQ81NumqkEG1iDur5ffGR2P1i7vaFd3wHa7BRFXXH4cxuq97EZkuj2F5E14/bTjbMPFmD0ZuxKJati8Xh9JQJY+EqKT+tQcynqMy6XJXdVFh9tnCYiWeQBsLiWR5HW31EmVY85HGJlVbsLlSCdx0Y//wA62b//AH4b/nJ/nUPGdptkypIj4vClZFZX+tTUMCDx5GqrJDdRSr6N9qifBIO8WVoWfDvIrZg5iOVWvxzplf8APTVXAFFFFAFFFFAFFFFAFFFFAFazEvsj4UUUAd0vsj4Cjul9kfAUUUAd0vsj4Cjul9kfAUUUAd0vsj4Cjul9kfAUUUAd0vsj4Cjul9kfAUUUAd0vsj4Cjul9kfAUUUAd0vsj4Cjul9kfAUUUAd0vsj4Cjul9kfAUUUBkigbgB5VlRRQBRRRQH//Z;" vertex="1" parent="1">
          <mxGeometry x="112.42" y="140" width="115.16" height="140" as="geometry" />
        </mxCell>
        <mxCell id="qsSFl6psFR9ltQQO1IaP-10" value="" style="edgeStyle=orthogonalEdgeStyle;rounded=0;orthogonalLoop=1;jettySize=auto;html=1;" edge="1" parent="1" target="qsSFl6psFR9ltQQO1IaP-7">
          <mxGeometry relative="1" as="geometry">
            <mxPoint x="162" y="320" as="sourcePoint" />
          </mxGeometry>
        </mxCell>
        <mxCell id="qsSFl6psFR9ltQQO1IaP-2" value="Anya enters &quot;top-spies-in-the-world.com&quot; in the browser" style="text;html=1;align=center;verticalAlign=middle;resizable=0;points=[];autosize=1;strokeColor=none;fillColor=none;" vertex="1" parent="1">
          <mxGeometry x="10" y="290" width="320" height="30" as="geometry" />
        </mxCell>
        <mxCell id="qsSFl6psFR9ltQQO1IaP-4" value="" style="shape=link;html=1;rounded=0;fillColor=#e51400;strokeColor=#B20000;entryX=0.713;entryY=0.967;entryDx=0;entryDy=0;entryPerimeter=0;" edge="1" parent="1" target="qsSFl6psFR9ltQQO1IaP-2">
          <mxGeometry width="100" relative="1" as="geometry">
            <mxPoint x="90" y="320" as="sourcePoint" />
            <mxPoint x="190" y="320" as="targetPoint" />
          </mxGeometry>
        </mxCell>
        <mxCell id="qsSFl6psFR9ltQQO1IaP-7" value="This is a &lt;b&gt;URL&lt;/b&gt;" style="text;html=1;align=center;verticalAlign=middle;resizable=0;points=[];autosize=1;strokeColor=none;fillColor=none;" vertex="1" parent="1">
          <mxGeometry x="112.42" y="350" width="100" height="30" as="geometry" />
        </mxCell>
        <mxCell id="qsSFl6psFR9ltQQO1IaP-11" value="https://top-spies-in-the-world.com/top100/loid-forger" style="text;html=1;align=center;verticalAlign=middle;resizable=0;points=[];autosize=1;strokeColor=none;fillColor=none;" vertex="1" parent="1">
          <mxGeometry x="12.420000000000002" y="380" width="300" height="30" as="geometry" />
        </mxCell>
        <mxCell id="qsSFl6psFR9ltQQO1IaP-12" value="" style="rounded=0;whiteSpace=wrap;html=1;fillColor=none;fontColor=#ffffff;strokeColor=#B20000;" vertex="1" parent="1">
          <mxGeometry x="20" y="380" width="40" height="30" as="geometry" />
        </mxCell>
        <mxCell id="qsSFl6psFR9ltQQO1IaP-14" value="" style="rounded=0;whiteSpace=wrap;html=1;fillColor=none;fontColor=#000000;strokeColor=#BD7000;" vertex="1" parent="1">
          <mxGeometry x="70" y="380" width="130" height="30" as="geometry" />
        </mxCell>
        <mxCell id="qsSFl6psFR9ltQQO1IaP-15" value="" style="rounded=0;whiteSpace=wrap;html=1;fillColor=none;fontColor=#ffffff;strokeColor=#3A5431;" vertex="1" parent="1">
          <mxGeometry x="210" y="380" width="30" height="30" as="geometry" />
        </mxCell>
        <mxCell id="qsSFl6psFR9ltQQO1IaP-16" value="" style="rounded=0;whiteSpace=wrap;html=1;fillColor=none;fontColor=#ffffff;strokeColor=#432D57;" vertex="1" parent="1">
          <mxGeometry x="250" y="380" width="50" height="30" as="geometry" />
        </mxCell>
        <mxCell id="qsSFl6psFR9ltQQO1IaP-17" value="Protocol" style="text;html=1;align=center;verticalAlign=middle;resizable=0;points=[];autosize=1;strokeColor=#B20000;fillColor=#e51400;fontColor=#ffffff;resizeWidth=1;fontSize=6;" vertex="1" parent="1">
          <mxGeometry x="15" y="410" width="50" height="20" as="geometry" />
        </mxCell>
        <mxCell id="qsSFl6psFR9ltQQO1IaP-18" value="Domain" style="text;html=1;align=center;verticalAlign=middle;resizable=0;points=[];autosize=1;strokeColor=#BD7000;fillColor=#f0a30a;fontColor=#000000;fontSize=6;" vertex="1" parent="1">
          <mxGeometry x="115" y="410" width="40" height="20" as="geometry" />
        </mxCell>
        <mxCell id="qsSFl6psFR9ltQQO1IaP-19" value="Path" style="text;html=1;align=center;verticalAlign=middle;resizable=0;points=[];autosize=1;strokeColor=#3A5431;fillColor=#6d8764;fontColor=#ffffff;fontSize=6;" vertex="1" parent="1">
          <mxGeometry x="205" y="410" width="40" height="20" as="geometry" />
        </mxCell>
        <mxCell id="qsSFl6psFR9ltQQO1IaP-20" value="Resource" style="text;html=1;align=center;verticalAlign=middle;resizable=0;points=[];autosize=1;strokeColor=#432D57;fillColor=#76608a;fontColor=#ffffff;fontSize=6;" vertex="1" parent="1">
          <mxGeometry x="250" y="410" width="50" height="20" as="geometry" />
        </mxCell>
      </root>
    </mxGraphModel>
  </diagram>
</mxfile>
